<svg xmlns="http://www.w3.org/2000/svg" xmlns:xlink="http://www.w3.org/1999/xlink" width="242.72" height="60.129" viewBox="0 0 242.72 60.129">
  <defs>
    <clipPath id="clip-path">
      <path id="Path_4304" data-name="Path 4304" d="M0-16.288H242.72V-76.417H0Z" transform="translate(0 76.417)" fill="#fff"/>
    </clipPath>
  </defs>
  <g id="Group_1217" data-name="Group 1217" transform="translate(0 76.417)">
    <g id="Group_1216" data-name="Group 1216" transform="translate(0 -76.417)" clip-path="url(#clip-path)">
      <g id="Group_1197" data-name="Group 1197" transform="translate(117.325 4.038)">
        <path id="Path_4285" data-name="Path 4285" d="M-.736-.006c.72,0,1.441.009,2.161,0a.933.933,0,0,1,.954.651Q4.7,5.984,7.032,11.32c.093.212.183.44.458.445.319.006.455-.253.569-.489.75-1.553,1.49-3.112,2.233-4.668q1.456-3.05,2.913-6.1A.847.847,0,0,1,14.025,0Q15.7,0,17.38,0a.806.806,0,0,1,.784.536c1.5,3.166,3.026,6.322,4.54,9.483.2.41.379.827.562,1.243.107.244.18.529.517.524.314,0,.466-.245.554-.5.316-.916.736-1.786,1.122-2.671q1.75-4.011,3.5-8.02a.907.907,0,0,1,.927-.6c1.421.012,2.843,0,4.265.009.576,0,.685.2.458.7Q33,4.242,31.4,7.788q-1.344,2.978-2.672,5.963-1.526,3.428-3.04,6.86c-.115.26-.248.512-.353.776a.867.867,0,0,1-.88.577c-1.649.057-1.613.05-2.338-1.443-1.653-3.409-3.346-6.8-5.019-10.2-.309-.628-.593-1.268-.908-1.894-.116-.231-.244-.5-.568-.488-.3.015-.382.285-.488.5q-1.59,3.239-3.171,6.481C10.937,17.017,9.9,19.1,8.895,21.207a1.152,1.152,0,0,1-1.3.763c-.262-.032-.53-.01-.8-.019a.826.826,0,0,1-.784-.549Q4.322,17.582,2.611,13.77.6,9.285-1.415,4.8C-2.053,3.387-2.645,1.951-3.359.571c-.205-.4-.065-.594.406-.6.739-.006,1.478,0,2.217,0Z" transform="translate(3.451 0.029)" fill="#fff"/>
      </g>
      <g id="Group_1198" data-name="Group 1198" transform="translate(157.373 4.048)">
        <path id="Path_4286" data-name="Path 4286" d="M-6.155-2.939c0,3.413-.008,6.826.009,10.239,0,.483-.193.642-.638.638-1.137-.009-2.274-.007-3.412,0a1.134,1.134,0,0,1-.895-.413Q-16.525,1.4-21.966-4.722c-.2-.226-.377-.474-.566-.712s-.42-.481-.762-.367-.3.444-.3.725q0,3.555.013,7.11c0,1.763,0,3.527.024,5.29,0,.412-.158.605-.559.606q-2.1,0-4.207,0c-.4,0-.556-.2-.554-.612q.025-9.813.028-19.625c0-.17,0-.341-.012-.511-.051-.88.013-.954.877-.955,1.062,0,2.125.029,3.184-.012a1.858,1.858,0,0,1,1.579.7c3,3.365,6.031,6.709,9.048,10.062.583.648,1.15,1.312,1.73,1.962.174.194.346.451.66.335s.292-.412.291-.678q-.02-5.859-.049-11.717c0-.43.153-.645.585-.646l4.321-.01c.412,0,.492.254.491.6q-.006,5.119,0,10.239Z" transform="translate(28.878 13.791)" fill="#fff"/>
      </g>
      <g id="Group_1199" data-name="Group 1199" transform="translate(194.032 4.049)">
        <path id="Path_4287" data-name="Path 4287" d="M-6.139-2.943c0,3.376-.01,6.751.009,10.126,0,.552-.2.748-.731.74q-1.621-.025-3.241,0a1.217,1.217,0,0,1-.987-.46Q-16.8,1.01-22.511-5.437c-.2-.231-.409-.5-.759-.36-.332.131-.277.465-.276.743,0,4.1.006,8.192.031,12.288,0,.511-.206.682-.668.681-1.308,0-2.615-.006-3.923.006-.505,0-.7-.2-.695-.719.017-4.267.013-8.533.013-12.8,0-2.484.006-4.968-.015-7.452,0-.548.219-.751.741-.746,1.194.012,2.389.015,3.583,0a1.407,1.407,0,0,1,1.142.517Q-20-9.556-16.644-5.842c1.41,1.561,2.849,3.1,4.2,4.71.2.235.434.471.774.359.322-.106.271-.422.27-.682q0-5.4-.012-10.809c0-.209,0-.417-.016-.626-.052-.821.024-.9.87-.906,1.213,0,2.427,0,3.64-.011.674,0,.777.094.777.795q0,5.034,0,10.069" transform="translate(28.803 13.807)" fill="#fff"/>
      </g>
      <g id="Group_1200" data-name="Group 1200" transform="translate(92.794 3.69)">
        <path id="Path_4288" data-name="Path 4288" d="M-3.517,0A13.728,13.728,0,0,1,5.772,3.391a10.547,10.547,0,0,1-1.563,16.78A14.443,14.443,0,0,1-4.525,22.3a14.093,14.093,0,0,1-5.23-1.179,11.258,11.258,0,0,1-5.454-4.956,10.043,10.043,0,0,1-.943-7.54,10.711,10.711,0,0,1,4.4-6.224A14.566,14.566,0,0,1-3.517,0M-3.4,18.058A8.416,8.416,0,0,0-.936,17.7c4.675-1.4,5.989-7.093,3.416-10.616a6.942,6.942,0,0,0-5.414-2.8c-4.158-.3-7.594,2.036-8.02,6.045a6.685,6.685,0,0,0,1.623,5.436A7.238,7.238,0,0,0-3.4,18.058" transform="translate(16.501)" fill="#fff"/>
      </g>
      <g id="Group_1201" data-name="Group 1201" transform="translate(68.291 4.021)">
        <path id="Path_4289" data-name="Path 4289" d="M0-2.949Q0-8.068,0-13.187c0-.373.157-.569.526-.6.076-.006.151-.009.227-.009,3.639.025,7.285-.154,10.915.079,3.591.231,6.732,1.56,8.834,4.653A11,11,0,0,1,22.118-.9a9.454,9.454,0,0,1-2.537,5.3,10.613,10.613,0,0,1-4.615,2.678,21.68,21.68,0,0,1-6.565.84c-2.5-.017-5,0-7.506-.006-.849,0-.875-.064-.873-.912C.036,3.688.029.369.029-2.949H0M5.281-3h0c0,2.065-.006,4.129,0,6.194,0,.788.243,1.025,1.02,1.031,1.155.009,2.315.065,3.464-.019a7.326,7.326,0,0,0,5.322-2.3,7.457,7.457,0,0,0,1.679-5.553,6.952,6.952,0,0,0-.764-2.883,6.675,6.675,0,0,0-5.923-3.589c-1.244-.092-2.5-.042-3.748-.047-.861,0-1.054.2-1.054,1.086q0,3.039,0,6.08" transform="translate(0.004 13.835)" fill="#fff"/>
      </g>
      <g id="Group_1202" data-name="Group 1202" transform="translate(219.87 3.703)">
        <path id="Path_4290" data-name="Path 4290" d="M-6.188-4.108c0,1.232-.008,2.464.006,3.7A1.153,1.153,0,0,1-6.689.6a11.345,11.345,0,0,1-3.751,1.711,18.252,18.252,0,0,1-8.1.507c-3.8-.616-7.048-2.219-9.1-5.635a9.978,9.978,0,0,1-1.273-6.678c.661-4.8,3.621-7.543,8.035-8.949a18.617,18.617,0,0,1,8.651-.57,26.008,26.008,0,0,1,4.9,1.215.9.9,0,0,1,.689.966c-.016,1,0,2.009-.008,3.014-.007.586-.215.695-.755.454a17.847,17.847,0,0,0-9.644-1.515A7.168,7.168,0,0,0-23.51-8.617a6.409,6.409,0,0,0,3.532,6.455,11.033,11.033,0,0,0,6.213.847A8.293,8.293,0,0,0-12.136-1.8a.662.662,0,0,0,.427-.357A3.875,3.875,0,0,0-11.653-4.6c-.075-.282-.4-.319-.674-.32-.607,0-1.213.011-1.819,0s-.746-.184-.729-.81c.018-.663.034-1.326.01-1.988-.025-.714.057-.836.781-.837,2.18-.006,4.359,0,6.538,0,1.361,0,1.36-.006,1.358,1.382q0,1.536,0,3.071" transform="translate(29.032 19.273)" fill="#fff"/>
      </g>
      <g id="Group_1203" data-name="Group 1203" transform="translate(225.01 34.488)">
        <path id="Path_4291" data-name="Path 4291" d="M-4.667-2.345q0,3.326,0,6.653a9.039,9.039,0,0,1-.681,3.6A6.367,6.367,0,0,1-9.7,11.529a11.473,11.473,0,0,1-8.008-.392A6.459,6.459,0,0,1-21.4,7.122c-.129-.384-.014-.607.393-.609,1.554-.007,3.107,0,4.661.006a.938.938,0,0,1,.726.4c1.283,1.6,4.78,1.127,5.789-.753a3.257,3.257,0,0,0,.29-1.936c-.05-.48-.425-.575-.895-.227A7.88,7.88,0,0,1-12.43,5.066a6.8,6.8,0,0,1-8.241-3.029,9.368,9.368,0,0,1-1.05-6.47,8.236,8.236,0,0,1,3.087-5.31c2.254-1.735,6.411-1.707,8.321.29a.656.656,0,0,0,.757.254c.3-.131.26-.428.264-.692.009-.671.122-.784.8-.788,1,0,2.009,0,3.013,0,.713,0,.814.1.814.829q0,3.753,0,7.506ZM-17.2-2.552a8.443,8.443,0,0,0,.088.875,3.734,3.734,0,0,0,5.526,2.715A4.266,4.266,0,0,0-9.679-4.657a4,4,0,0,0-5.58-1.784A4.134,4.134,0,0,0-17.2-2.552" transform="translate(21.897 11)" fill="#fff"/>
      </g>
      <g id="Group_1204" data-name="Group 1204" transform="translate(206.269 34.48)">
        <path id="Path_4292" data-name="Path 4292" d="M0-2.092c0-2.236,0-4.472,0-6.709,0-.472.179-.7.67-.7,1.136.012,2.273,0,3.409.009.589,0,.735.174.7.762-.006.094-.023.188-.025.283-.007.268-.028.56.277.683s.538-.063.741-.282A6.073,6.073,0,0,1,15.461-6.5a4.946,4.946,0,0,1,.431,2.046c.017,3.051.022,6.1.04,9.154a.518.518,0,0,1-.583.6q-1.9.008-3.808,0c-.528,0-.589-.354-.587-.777q.011-3.411.006-6.823a7.431,7.431,0,0,0-.04-.965A2.708,2.708,0,0,0,7.25-5.412,3.362,3.362,0,0,0,4.829-1.9q0,3.184,0,6.369c0,.725-.1.838-.808.84-1.118,0-2.236,0-3.354,0C.2,5.309,0,5.107,0,4.616.015,2.38.006.144.006-2.092H0" transform="translate(0.005 9.817)" fill="#fff"/>
      </g>
      <g id="Group_1205" data-name="Group 1205" transform="translate(157.358 28.586)">
        <path id="Path_4293" data-name="Path 4293" d="M0-2.851c0-3.277,0-6.555,0-9.833,0-.449.183-.688.629-.69,1.307-.006,2.614,0,3.92,0,.479,0,.659.235.658.712Q5.176-5.332,5.172,2c0,1,.146,1.165,1.143,1.167q2.272,0,4.544-.035c.452-.008.684.162.685.618q0,1.649,0,3.3c0,.527-.35.6-.772.6q-3.353-.008-6.706,0c-1.117,0-2.235,0-3.352,0-.489,0-.714-.189-.711-.715C.022,3.666.014.408.014-2.851H0" transform="translate(0.006 13.378)" fill="#fff"/>
      </g>
      <g id="Group_1206" data-name="Group 1206" transform="translate(179.366 34.801)">
        <path id="Path_4294" data-name="Path 4294" d="M-.694,0c.644,0,1.289.014,1.932,0A.953.953,0,0,1,2.28.742C3.034,2.905,3.934,5.016,4.646,7.2a.513.513,0,0,0,.535.419.542.542,0,0,0,.5-.468C6.1,5.568,6.713,4.057,7.234,2.515c.218-.645.442-1.288.68-1.927a.821.821,0,0,1,.858-.6c1.231.02,2.462,0,3.693.006.6,0,.7.2.478.738q-1.078,2.625-2.128,5.26Q9.151,10.162,7.5,14.335a.641.641,0,0,1-.65.449c-1.155,0-2.311,0-3.466,0a.818.818,0,0,1-.773-.574C1.768,12.223.935,10.232.087,8.246q-1.56-3.653-3.142-7.3c-.359-.821-.29-.957.6-.951.587,0,1.175,0,1.762,0" transform="translate(3.258 0.01)" fill="#fff"/>
      </g>
      <g id="Group_1207" data-name="Group 1207" transform="translate(184.329 4.066)">
        <path id="Path_4295" data-name="Path 4295" d="M0-2.937C0-6.349,0-9.761-.007-13.173c0-.416.18-.6.57-.6,1.4-.006,2.8,0,4.207,0,.526,0,.6.334.6.765Q5.357-6.789,5.36-.561q0,3.839,0,7.678c0,.718-.07.8-.762.808-1.307.006-2.615,0-3.922,0C.263,7.923.007,7.8.01,7.3.024,3.887.017.475.017-2.937H0" transform="translate(0.007 13.781)" fill="#fff"/>
      </g>
      <g id="Group_1208" data-name="Group 1208" transform="translate(198.19 34.801)">
        <path id="Path_4296" data-name="Path 4296" d="M0-2.005c0-2.235.006-4.469,0-6.7,0-.478.2-.7.675-.7q1.76.008,3.521,0a.527.527,0,0,1,.607.579c.007.284,0,.568,0,.852q0,6.222,0,12.444c0,.836-.083.924-.9.925-1.079,0-2.158,0-3.237,0C.195,5.4,0,5.188,0,4.7.014,2.464.006.23.006-2.005H0" transform="translate(0.006 9.407)" fill="#fff"/>
      </g>
      <g id="Group_1209" data-name="Group 1209" transform="translate(172.052 34.803)">
        <path id="Path_4297" data-name="Path 4297" d="M-1.3-2.024c0,2.217-.007,4.435.006,6.652,0,.451-.162.677-.622.676q-1.761,0-3.524,0c-.485,0-.647-.244-.645-.719q.019-6.651.009-13.3c0-.626.124-.771.756-.773,1.08,0,2.16,0,3.239,0,.662,0,.784.142.784.814q0,3.326,0,6.652Z" transform="translate(6.082 9.494)" fill="#fff"/>
      </g>
      <g id="Group_1210" data-name="Group 1210" transform="translate(171.79 27.592)">
        <path id="Path_4298" data-name="Path 4298" d="M0-.73A2.627,2.627,0,0,1,2.7-3.422a2.554,2.554,0,0,1,2.661,2.6A2.692,2.692,0,0,1,2.6,1.948,2.651,2.651,0,0,1,0-.73" transform="translate(0.001 3.423)" fill="#fff"/>
      </g>
      <g id="Group_1211" data-name="Group 1211" transform="translate(197.999 27.57)">
        <path id="Path_4299" data-name="Path 4299" d="M0-.734A2.648,2.648,0,0,1,2.631-3.443,2.751,2.751,0,0,1,5.373-.81,2.782,2.782,0,0,1,2.627,1.948,2.585,2.585,0,0,1,0-.734" transform="translate(0 3.443)" fill="#fff"/>
      </g>
      <g id="Group_1212" data-name="Group 1212" transform="translate(31.841 0)">
        <path id="Path_4300" data-name="Path 4300" d="M-7.659-8.107H-35.931V-38.036l.253.017A29.989,29.989,0,0,1-15.91-28.7,29.992,29.992,0,0,1-7.661-8.347Zm-27.8-.474H-8.139a29.513,29.513,0,0,0-8.115-19.789,29.518,29.518,0,0,0-19.2-9.157Z" transform="translate(35.931 38.036)" fill="#fff"/>
      </g>
      <g id="Group_1213" data-name="Group 1213" transform="translate(0.162 0.192)">
        <path id="Path_4301" data-name="Path 4301" d="M-7.908-7.991v-29.5A29.854,29.854,0,0,0-37.1-7.991Z" transform="translate(37.101 37.491)" fill="#fff"/>
      </g>
      <g id="Group_1214" data-name="Group 1214" transform="translate(0 32.177)">
        <path id="Path_4302" data-name="Path 4302" d="M-8.016-7.572l-.242-.006a29.98,29.98,0,0,1-29.33-27.691l-.02-.256H-8.016ZM-37.094-35.05A29.5,29.5,0,0,0-8.491-8.057V-35.05Z" transform="translate(37.609 35.524)" fill="#fff"/>
      </g>
      <g id="Group_1215" data-name="Group 1215" transform="translate(31.841 32.177)">
        <path id="Path_4303" data-name="Path 4303" d="M0-7.558v-27.9H28.2l-.02.256A30.233,30.233,0,0,1,.253-7.576ZM.474-34.986V-8.067A29.761,29.761,0,0,0,27.681-34.986Z" transform="translate(0 35.46)" fill="#fff"/>
      </g>
    </g>
  </g>
</svg>
